<svg xmlns="http://www.w3.org/2000/svg" width="100%" height="100%" viewBox="0 0 1200 300"><defs><linearGradient id="bg-grad" x1="0%" x2="100%" y1="0%" y2="100%"><stop offset="0%" stop-color="#0f172a"/><stop offset="50%" stop-color="#1e1b4b"/><stop offset="100%" stop-color="#0f172a"/></linearGradient><linearGradient id="accent-grad" x1="0%" x2="100%" y1="0%" y2="0%"><stop offset="0%" stop-color="#6366f1"/><stop offset="50%" stop-color="#a855f7"/><stop offset="100%" stop-color="#ec4899"/></linearGradient><linearGradient id="glow-grad" x1="0%" x2="100%" y1="0%" y2="100%"><stop offset="0%" stop-color="#38bdf8" stop-opacity=".3"/><stop offset="100%" stop-color="#818cf8" stop-opacity="0"/></linearGradient><filter id="glow" width="140%" height="140%" x="-20%" y="-20%"><feGaussianBlur result="blur" stdDeviation="10"/><feComposite in="SourceGraphic" in2="blur" operator="over"/></filter></defs><style>@keyframes pulse{0%{transform:scale(1) translate(0,0);opacity:.2}50%{transform:scale(1.1) translate(-10px,15px);opacity:.4}}@keyframes float{0%{transform:translateY(0)}50%{transform:translateY(-8px)}}.badge-text,.subtitle,.title{font-family:system-ui,-apple-system,sans-serif}.title{font-weight:800;font-size:42px;fill:#fff}.subtitle{font-weight:500;font-size:20px;fill:#94a3b8}.badge-text{font-weight:600;font-size:14px;fill:#e2e8f0}.pulse-shape{animation:pulse 8s ease-in-out infinite;transform-origin:center}.dash-line{stroke-dasharray:8,12;animation:dash 3s linear infinite}.floating-card{animation:float 6s ease-in-out infinite}</style><rect width="1200" height="300" fill="url(#bg-grad)" rx="16"/><g stroke="#fff" stroke-width="1" opacity=".08"><path d="M0 50H1200 M0 100H1200 M0 150H1200 M0 200H1200 M0 250H1200"/><path d="M100 0V300 M200 0V300 M300 0V300 M400 0V300 M500 0V300 M600 0V300 M700 0V300 M800 0V300 M900 0V300 M1000 0V300 M1100 0V300"/></g><circle cx="150" cy="80" r="120" fill="url(#glow-grad)" class="pulse-shape"/><circle cx="1050" cy="220" r="160" fill="url(#glow-grad)" class="pulse-shape" style="animation-delay:-4s"/><g fill="none" opacity=".4"><path stroke="#38bdf8" stroke-width="2" d="M 800 90 L 920 90 Q 950 90 950 120 L 950 180 Q 950 210 980 210 L 1080 210" class="dash-line"/><path stroke="#ec4899" stroke-width="2" d="M 750 220 L 850 220 Q 880 220 880 190 L 880 140 Q 880 110 910 110 L 1020 110" class="dash-line" style="animation-delay:-1.5s"/></g><g class="floating-card" opacity=".25"><path fill="none" stroke="url(#accent-grad)" stroke-width="6" d="M70 0 L140 35 V105 C140 175 70 210 70 210 C70 210 0 175 0 105 V35 Z" transform="translate(940, 65)"/><path fill="none" stroke="#38bdf8" stroke-linecap="round" stroke-linejoin="round" stroke-width="8" d="M45 105 L62 122 L98 86" transform="translate(940, 65)"/></g><g class="floating-card" opacity=".75" transform="translate(820, 75)"><rect width="100" height="32" x="0" y="0" fill="#1e293b" stroke="#6366f1" stroke-width="1.5" rx="16"/><text x="50" y="21" fill="#818cf8" class="badge-text" text-anchor="middle">DMARC</text><rect width="80" height="32" x="115" y="45" fill="#1e293b" stroke="#38bdf8" stroke-width="1.5" rx="16"/><text x="155" y="66" fill="#38bdf8" class="badge-text" text-anchor="middle">SPF</text><rect width="90" height="32" x="30" y="90" fill="#1e293b" stroke="#a855f7" stroke-width="1.5" rx="16"/><text x="75" y="111" fill="#c084fc" class="badge-text" text-anchor="middle">DKIM</text><rect width="85" height="32" x="135" y="135" fill="#1e293b" stroke="#ec4899" stroke-width="1.5" rx="16"/><text x="177" y="156" fill="#f472b6" class="badge-text" text-anchor="middle">BIMI</text></g><rect width="8" height="170" x="60" y="65" fill="url(#accent-grad)" rx="4"/><g><text x="0" y="115" class="title" transform="translate(90, 0)">Awesome Email Authentication</text><text x="0" y="160" fill="url(#accent-grad)" class="title" transform="translate(90, 0)">&amp; Security Management</text><text x="0" y="205" class="subtitle" transform="translate(90, 0)">Curated SaaS Platforms, Open-Source Parsers, DMARC, SPF, DKIM &amp; BIMI Tools</text><g transform="translate(90, 0) translate(0, 225)"><rect width="130" height="26" x="0" y="0" fill="#334155" rx="6"/><text x="65" y="17" fill="#cbd5e1" font-family="system-ui, sans-serif" font-size="12" font-weight="600" text-anchor="middle">🛡️ Enterprise SaaS</text><rect width="150" height="26" x="140" y="0" fill="#334155" rx="6"/><text x="215" y="17" fill="#cbd5e1" font-family="system-ui, sans-serif" font-size="12" font-weight="600" text-anchor="middle">⚡ Open-Source Parsers</text><rect width="140" height="26" x="300" y="0" fill="#334155" rx="6"/><text x="370" y="17" fill="#cbd5e1" font-family="system-ui, sans-serif" font-size="12" font-weight="600" text-anchor="middle">📊 Report Analytics</text></g></g></svg>